<?xml version="1.0" encoding="utf-8"?>
<!-- Generator: Adobe Illustrator 19.2.1, SVG Export Plug-In . SVG Version: 6.00 Build 0)  -->
<svg version="1.1" id="Layer_1" xmlns="http://www.w3.org/2000/svg" xmlns:xlink="http://www.w3.org/1999/xlink" x="0px" y="0px"
	 viewBox="0 0 612 792" style="enable-background:new 0 0 612 792;" xml:space="preserve">
<style type="text/css">
	.st0{fill:#FFFFFF;}
	.st1{fill:#24CFA2;}
	.st2{fill:#0099CC;}
	.st3{fill:#FF6600;}
	.st4{fill:#A6A8AB;}
</style>
<g>
	<path class="st0" d="M158.7,335.8h-31.5l-19.3,97.5h20.6l6.4-32h14.2c10.1,0,20.1-3.7,27.5-10.2c8.1-7,12.5-16.8,12.5-27.6
		C189.1,345.9,178,335.8,158.7,335.8z M167.7,365.1c0,11-7.8,18-19.9,18h-9.4l5.8-29.1h10C166,354,167.7,359.3,167.7,365.1z"/>
	<path class="st0" d="M285.8,342.5c-0.5-0.3-13.2-8.3-32.2-8.3c-37.3,0-60.4,30.3-60.4,58.4c0,25.4,18,42.4,44.8,42.4
		c21.4,0,34.5-10.7,35.1-11.1l0.9-0.8l-8.5-15.8l-1.4,1c-0.1,0.1-11.4,8.3-25.4,8.3c-15.1,0-24.1-9.3-24.1-25
		c0-22,16.9-39.3,38.4-39.3c13.2,0,21.5,6.3,21.6,6.3l1.3,1l11.3-16.5L285.8,342.5z"/>
	<path class="st0" d="M349.1,381.1c6.6-4.5,13.6-11.8,13.6-22.2c0-6.6-2.3-12.2-6.5-16.1c-5-4.6-12.8-7-23-7h-29.3l-19.3,97.5h37.9
		c20.3,0,36.2-14.2,36.2-32.2C358.7,390.2,353.4,384.2,349.1,381.1z M326.5,392.7c9.7,0,10.8,4.9,10.8,8.6c0,8.3-6.3,13.9-15.8,13.9
		h-12.8l4.5-22.5H326.5z M331.8,375.1h-15.1l4.2-21.1h9.2c9.6,0,11,3.5,11,7.3C341.2,369.5,333.4,374.2,331.8,375.1z"/>
</g>
<g>
	<circle class="st1" cx="403.1" cy="333.2" r="33.2"/>
	<g>
		<path class="st0" d="M394.8,315.5h13v32h-6.9v-25.9h-6.1V315.5z"/>
	</g>
</g>
<g>
	<circle class="st2" cx="459.1" cy="331.6" r="35.4"/>
	<g>
		<path class="st0" d="M462.1,326.9c1-1.4,1.4-2.7,1.4-3.9c0-1.3-0.4-2.3-1.2-3.2c-0.8-0.9-1.9-1.3-3.2-1.3c-2.4,0-4.7,1.7-6.8,5.1
			l-6.8-4c1.8-2.8,3.7-4.8,5.8-6.2c2.1-1.4,4.8-2.1,8.1-2.1c3.3,0,6.2,1,8.6,3.1c2.5,2.1,3.7,4.9,3.7,8.5c0,2-0.5,3.8-1.5,5.6
			c-1,1.8-2.8,4.1-5.5,6.9l-6.8,7.1h15v7.6h-26.8v-6.3l11.1-11.4C459.6,330.1,461.2,328.3,462.1,326.9z"/>
	</g>
</g>
<g>
	<circle class="st3" cx="425" cy="391.7" r="42.4"/>
	<g>
		<path class="st0" d="M411.9,378.7V370h28.2v7.1l-9.4,10.7c3.7,0.6,6.5,2.2,8.6,4.6s3,5.3,3,8.6c0,4.8-1.6,8.6-4.9,11.4
			c-3.3,2.7-7.5,4.1-12.5,4.1c-5.1,0-10.3-1.8-15.5-5.4l4.2-8.2c4.3,3.1,8.2,4.6,11.7,4.6c2.1,0,3.8-0.5,5.1-1.5c1.3-1,2-2.5,2-4.4
			c0-1.9-0.8-3.4-2.3-4.5c-1.5-1.1-3.7-1.7-6.4-1.7c-1.4,0-3.5,0.4-6.1,1.3v-7.6l8.8-10.4H411.9z"/>
	</g>
</g>
<g>
	<path class="st4" d="M110.7,454h11.4c8.6,0,16.8,4.1,16.8,15.1c0,12.6-10.9,21.8-24.5,21.8h-11L110.7,454z M114.2,485
		c11.8,0,17.5-7.7,17.5-15.5c0-6.2-3.4-9.7-10.7-9.7h-4.6l-5,25.2H114.2z"/>
	<path class="st4" d="M156.9,465.1c3.9,0,7.4,1.7,7.4,5.9c0,7.1-10.8,10.2-15.3,11.2c0.1,2.5,0.9,4.4,3.8,4.4c3.8,0,8.1-3.1,8.1-3.1
		l1.1,5c0,0-4.4,3.2-10.1,3.2c-6.7,0-9.7-4.5-9.7-9.7C142.2,474.5,148.4,465.1,156.9,465.1z M149.4,477.8c3.5-0.9,8.5-3.1,8.5-6
		c0-0.9-0.4-1.9-1.9-1.9C153.8,469.9,150.4,472.5,149.4,477.8z"/>
	<path class="st4" d="M167.7,484.5c0,0,2.7,2,6.3,2c2.2,0,3.7-0.8,3.7-2.5c0-3.8-7.7-4.1-7.7-11c0-5.1,4.3-8,10.1-8
		c4.4,0,7.1,1.7,7.1,1.7l-1.5,4.9c0,0-2.2-1.5-5.3-1.5c-2.5,0-3.8,0.9-3.8,2.4c0,3.6,7.7,3.8,7.7,10.8c0,5.6-4.9,8.2-10.1,8.2
		c-4.8,0-8-2.1-8-2.1L167.7,484.5z"/>
	<path class="st4" d="M194.6,465.7h6.6l-5.3,25.2h-6.6L194.6,465.7z M196.1,456.8c0-2.6,2-4.4,4.4-4.4c2.1,0,3.3,1.4,3.3,3.4
		c0,2.5-2,4.4-4.4,4.4C197.2,460.2,196.1,458.8,196.1,456.8z"/>
	<path class="st4" d="M210.6,494.3c-0.7,0.9-1.3,2-1.3,3.1c0,0.9,0.7,2.2,3.2,2.2c7.4,0,6.5-7.9,7.4-13.8h-0.2
		c-1.8,3.5-5.3,5.8-8.6,5.8c-3.8,0-6.8-2.6-6.8-7.8c0-7.6,6.4-18.7,17.4-18.7c2.7,0,4.4,0.7,8.4,0.7l-3.2,15.3
		c-2.1,9.8-0.8,23-14.8,23c-5.9,0-8.7-2.7-8.7-5.3c0-1.5,0.8-3.2,1.8-4.4H210.6z M221.3,475.9l1.2-5.9c0,0-0.9-0.3-1.9-0.3
		c-4.8,0-9.6,6.2-9.6,13.3c0,1.9,0.6,3,1.9,3C216.4,486.1,220.5,479.7,221.3,475.9z"/>
	<path class="st4" d="M238,466.3l6.6-1.1l-1.3,6c1.4-2.6,5.6-6.1,10.2-6.1c4,0,5.1,2.7,5.1,5.3c0,2.2-0.7,5-1.3,7.9l-2.7,12.6H248
		l2.7-12.7c0.3-1.7,0.9-4,0.9-5.4c0-1-0.3-1.7-1.4-1.7c-2.8,0-7.7,5.1-8.2,7.6l-2.6,12.2h-6.6L238,466.3z"/>
	<path class="st4" d="M279.1,482.4c0,0,3.7,3.1,8.4,3.1c3.4,0,6.8-1.7,6.8-4.7c0-6-12.6-6.6-12.6-16.2c0-6,5.1-11.2,13.7-11.2
		c4.9,0,9.3,1.7,9.3,1.7l-1.4,6.2c0,0-3.8-1.8-7.9-1.8c-3.9,0-6.6,1.6-6.6,4.4c0,6.2,12.6,6,12.6,16.5c0,7-6.5,11.2-13.6,11.2
		c-6,0-10.5-3.1-10.5-3.1L279.1,482.4z"/>
	<path class="st4" d="M321.7,465.1c7.5,0,11,5.2,11,10.6c0,6.4-4.8,15.9-15.3,15.9c-7.5,0-10.9-5-10.9-11
		C306.5,472.8,312.6,465.1,321.7,465.1z M317.9,486.6c4.8,0,7.7-6,7.7-10.6c0-3.4-1.3-6-4.4-6c-4,0-7.8,4.5-7.8,10.5
		C313.5,484.2,314.8,486.6,317.9,486.6z"/>
	<path class="st4" d="M338,467.1l4.8-1.5l0.2-1c1-7.2,3.9-14.4,12.9-14.4c4.1,0,7,1.7,7,1.7l-2.3,5c0,0-2-1.4-4.4-1.4
		c-4.8,0-6.1,4.7-6.9,10.2h6.7l-1.2,5h-6.2c-1.7,13.1-3.9,30.7-15.5,33.4l-2.7-4.6c8.1-2.3,10-14.6,11.5-25.9l0.4-2.9H338V467.1z"/>
	<path class="st4" d="M359.4,483.4l2.7-12.7h-3.6v-3.6l4.9-1.5l1.1-5.3l6.8-1.5l-1.5,7h7.6l-1.1,5h-7.5l-2.3,10.8
		c-0.2,0.9-0.3,1.7-0.3,2.3c0,1.6,0.7,2.1,1.7,2.1c1.8,0,3.6-1.2,5.1-2.3l1.5,4.9c-2.2,1.4-5.1,3.1-9,3.1c-4.1,0-6.3-1.9-6.3-5.6
		C359.2,485.2,359.2,484.4,359.4,483.4z"/>
	<path class="st4" d="M381.8,465.7h6.6c0,6.1,0.3,11.7,0.9,17.6c3-5.5,5.9-11.6,8.1-17.6h5.8c0,6.2,0.5,11.7,1.2,17.7
		c3-5.5,5.8-11.7,8-17.7h6.8c-3.5,8.8-8.2,17-13.3,25.3h-5.4c-0.9-4.8-1.5-9.7-2-14.9c-2.3,5-5,10-8.1,14.9h-5.6
		C383.1,483.1,382.1,474.7,381.8,465.7z"/>
	<path class="st4" d="M437.3,465.1c2.7,0,4.4,0.7,8.4,0.7l-3.6,17c-0.3,1.4-0.4,2.5-0.4,3.5c0,1.5,0.3,2.6,0.8,3.6l-6.1,1.7
		c-0.7-1.1-1.1-2.3-1.1-3.9c0-0.6,0-1.2,0.1-1.8h-0.2c-1.7,3.5-5.3,5.8-8.9,5.8c-3.7,0-6.5-2.6-6.5-8.4
		C420,476.4,426.3,465.1,437.3,465.1z M428.6,486.1c3.1,0,7.4-5.9,8.3-10.2l1.2-5.9c0,0-0.9-0.3-1.9-0.3c-4.8,0-9.6,6.3-9.6,12.8
		C426.7,484.9,427.3,486.1,428.6,486.1z"/>
	<path class="st4" d="M453.7,466.3l6.6-1.1l-1.4,6.6h0.3c2.5-3.8,4.8-6.5,8.1-6.5c1.5,0,2.3,0.3,2.3,0.3l-1.4,6.5c0,0-0.9-0.3-2-0.3
		c-1.4,0-3.1,0.7-5.5,3.6c-1.9,2.3-3.2,4.5-3.5,6.1l-2,9.5h-6.6L453.7,466.3z"/>
	<path class="st4" d="M485.3,465.1c3.9,0,7.4,1.7,7.4,5.9c0,7.1-10.8,10.2-15.3,11.2c0.1,2.5,0.9,4.4,3.8,4.4c3.8,0,8.1-3.1,8.1-3.1
		l1.1,5c0,0-4.4,3.2-10.1,3.2c-6.7,0-9.7-4.5-9.7-9.7C470.6,474.5,476.8,465.1,485.3,465.1z M477.7,477.8c3.5-0.9,8.5-3.1,8.5-6
		c0-0.9-0.4-1.9-1.9-1.9C482.1,469.9,478.8,472.5,477.7,477.8z"/>
</g>
</svg>
